<svg data-v-fde0c5aa="" xmlns="http://www.w3.org/2000/svg" viewBox="0 0 300 300" class="iconAbove"><!----><defs data-v-fde0c5aa=""><!----></defs><rect data-v-fde0c5aa="" fill="#F3E6FC" x="0" y="0" width="300px" height="300px" class="logo-background-square"></rect><defs data-v-fde0c5aa=""><!----></defs><g data-v-fde0c5aa="" id="a3a205ab-1d71-4cdb-8f0a-44dafa8f75b6" fill="#382345" transform="matrix(2.741748559502161,0,0,2.741748559502161,18.68396063914426,162.2352628295602)"><path d="M5.65 3.94L5.65 3.94Q5.90 3.94 6.20 3.98Q6.51 4.02 6.81 4.12Q7.10 4.21 7.36 4.36Q7.61 4.52 7.75 4.75L7.75 4.75Q7.92 4.87 8.05 5.11L8.05 5.11Q8.18 5.37 8.18 5.61L8.18 5.61Q8.18 5.87 8.08 6.08Q7.99 6.30 7.85 6.48Q7.70 6.66 7.54 6.79Q7.37 6.93 7.21 7.02Q7.05 7.12 6.94 7.16Q6.82 7.21 6.79 7.21L6.79 7.21Q6.75 7.21 6.68 7.18Q6.60 7.14 6.52 7.10L6.52 7.10Q6.43 7.05 6.33 6.98L6.33 6.98Q6.33 6.97 6.46 6.90Q6.59 6.82 6.75 6.67Q6.91 6.51 7.04 6.25Q7.17 6.00 7.17 5.62L7.17 5.62Q7.11 5.50 7 5.38Q6.89 5.27 6.72 5.19Q6.55 5.10 6.31 5.04Q6.06 4.99 5.73 4.99L5.73 4.99Q5.61 4.99 5.37 5.02Q5.13 5.06 4.82 5.15Q4.50 5.24 4.14 5.39Q3.77 5.54 3.41 5.79Q3.04 6.04 2.70 6.40Q2.37 6.75 2.11 7.22Q1.85 7.70 1.69 8.31Q1.54 8.93 1.54 9.71L1.54 9.71Q1.54 10.13 1.61 10.48Q1.67 10.82 1.79 11.10Q1.90 11.38 2.05 11.59Q2.20 11.81 2.37 11.98L2.37 11.98Q2.47 12.03 2.60 12.12Q2.73 12.20 2.95 12.28Q3.17 12.36 3.52 12.42Q3.87 12.48 4.41 12.48L4.41 12.48Q4.87 12.48 5.29 12.37Q5.71 12.26 6.08 12.09Q6.45 11.92 6.75 11.71Q7.06 11.50 7.30 11.30Q7.53 11.09 7.69 10.93Q7.85 10.76 7.91 10.67L7.91 10.67Q8.04 10.49 8.09 10.44Q8.15 10.39 8.19 10.39L8.19 10.39Q8.22 10.39 8.25 10.40Q8.29 10.40 8.32 10.40L8.32 10.40Q8.38 10.40 8.39 10.34Q8.41 10.28 8.43 10.28L8.43 10.28Q8.44 10.28 8.45 10.34Q8.46 10.39 8.46 10.47L8.46 10.47Q8.46 10.51 8.45 10.54Q8.44 10.58 8.44 10.62L8.44 10.62Q8.44 10.66 8.38 10.89Q8.33 11.13 8.19 11.45Q8.05 11.78 7.80 12.15Q7.55 12.52 7.15 12.83Q6.75 13.15 6.17 13.35Q5.60 13.56 4.82 13.56L4.82 13.56Q4.35 13.56 3.95 13.47Q3.55 13.38 3.23 13.26Q2.91 13.13 2.67 12.98Q2.42 12.82 2.26 12.69L2.26 12.69Q1.91 12.49 1.59 12.18Q1.26 11.87 1.02 11.44Q0.77 11.01 0.63 10.44Q0.48 9.87 0.48 9.15L0.48 9.15Q0.48 8.42 0.67 7.75Q0.86 7.08 1.21 6.50Q1.55 5.92 2.03 5.45Q2.51 4.98 3.08 4.64Q3.66 4.31 4.31 4.12Q4.96 3.94 5.65 3.94ZM13.38 9.50L13.38 9.50Q13.39 9.73 13.34 10.08Q13.30 10.42 13.23 10.82Q13.17 11.21 13.12 11.62Q13.06 12.03 13.06 12.39L13.06 12.39Q13.06 12.63 13.10 12.85Q13.13 13.06 13.21 13.22L13.21 13.22Q13.26 13.31 13.27 13.38Q13.27 13.45 13.25 13.50Q13.24 13.55 13.23 13.59Q13.21 13.62 13.23 13.66L13.23 13.66Q13.24 13.69 13.22 13.74Q13.20 13.78 13.16 13.82Q13.12 13.86 13.07 13.87Q13.02 13.89 12.97 13.86L12.97 13.86Q12.90 13.82 12.85 13.81Q12.81 13.80 12.78 13.81Q12.75 13.82 12.73 13.84Q12.70 13.85 12.67 13.84L12.67 13.84Q12.55 13.77 12.41 13.69Q12.28 13.61 12.24 13.51L12.24 13.51Q12.21 13.47 12.19 13.38Q12.16 13.28 12.14 13.15Q12.13 13.02 12.11 12.87Q12.10 12.72 12.09 12.58L12.09 12.58Q11.87 13.00 11.61 13.28Q11.35 13.56 11.10 13.73Q10.84 13.90 10.59 13.97Q10.34 14.03 10.14 14.03L10.14 14.03Q9.93 14.03 9.77 13.98Q9.60 13.92 9.52 13.85L9.52 13.85Q9.18 13.51 9.04 13.31Q8.90 13.10 8.91 12.97L8.91 12.97Q8.95 12.53 9.13 12.16Q9.30 11.79 9.57 11.48Q9.84 11.17 10.17 10.92Q10.50 10.67 10.85 10.48Q11.19 10.28 11.53 10.15Q11.86 10.01 12.13 9.93L12.13 9.93Q12.12 9.56 12.10 9.29Q12.09 9.01 12.05 8.88L12.05 8.88Q11.95 8.46 11.74 8.25Q11.53 8.04 11.22 8.04L11.22 8.04Q11.03 8.04 10.84 8.18Q10.64 8.33 10.49 8.57Q10.33 8.82 10.23 9.14Q10.13 9.46 10.12 9.82L10.12 9.82Q10.12 9.91 10.13 9.99Q10.14 10.07 10.15 10.16L10.15 10.16Q10.16 10.21 10.12 10.23Q10.08 10.25 10.03 10.26Q9.97 10.27 9.91 10.27Q9.85 10.28 9.81 10.29L9.81 10.29Q9.78 10.31 9.75 10.31Q9.73 10.32 9.71 10.31Q9.69 10.29 9.66 10.27Q9.63 10.24 9.58 10.20L9.58 10.20Q9.52 10.16 9.46 10.13Q9.41 10.10 9.36 10.08Q9.32 10.06 9.29 10.05Q9.26 10.03 9.26 10.00L9.26 10.00Q9.26 9.58 9.44 9.13Q9.63 8.67 9.95 8.30Q10.27 7.93 10.69 7.69Q11.11 7.45 11.58 7.45L11.58 7.45Q11.96 7.45 12.24 7.57Q12.52 7.68 12.72 7.87Q12.92 8.05 13.05 8.28Q13.17 8.50 13.24 8.73Q13.32 8.96 13.35 9.16Q13.38 9.37 13.38 9.50ZM12.15 11.39L12.15 10.71Q11.94 10.79 11.70 10.91Q11.45 11.03 11.20 11.20Q10.94 11.37 10.69 11.59Q10.44 11.81 10.22 12.07L10.22 12.07Q9.96 12.38 9.84 12.62Q9.73 12.86 9.70 13.03Q9.67 13.19 9.71 13.29Q9.75 13.38 9.81 13.41L9.81 13.41Q10.02 13.49 10.25 13.42Q10.48 13.36 10.71 13.19Q10.94 13.02 11.15 12.79Q11.37 12.55 11.56 12.30Q11.75 12.05 11.90 11.81Q12.05 11.57 12.15 11.39L12.15 11.39ZM15.85 4.38L15.85 4.38Q15.85 4.47 15.83 4.75Q15.82 5.03 15.80 5.42Q15.78 5.82 15.75 6.29Q15.73 6.75 15.70 7.22Q15.67 7.69 15.65 8.13Q15.63 8.57 15.63 8.89L15.63 8.89Q15.61 9.09 15.61 9.33Q15.61 9.57 15.61 9.84L15.61 9.84Q15.61 10.21 15.61 10.60Q15.61 10.99 15.62 11.38Q15.63 11.76 15.64 12.11Q15.65 12.46 15.65 12.74Q15.66 13.02 15.66 13.21Q15.67 13.40 15.67 13.45L15.67 13.45Q15.67 13.54 15.64 13.59Q15.61 13.64 15.56 13.66Q15.52 13.68 15.47 13.67Q15.42 13.66 15.39 13.64L15.39 13.64Q15.35 13.62 15.32 13.59Q15.30 13.56 15.29 13.55Q15.27 13.54 15.26 13.54Q15.25 13.55 15.24 13.60L15.24 13.60Q15.22 13.77 15.17 13.86Q15.11 13.95 15.04 13.98Q14.98 14.01 14.92 14Q14.87 13.99 14.85 13.95L14.85 13.95Q14.84 13.92 14.81 13.91Q14.78 13.90 14.75 13.90Q14.71 13.90 14.68 13.88Q14.65 13.86 14.64 13.81L14.64 13.81Q14.59 13.58 14.57 13.22Q14.56 12.86 14.56 12.41L14.56 12.41Q14.56 12.02 14.57 11.57Q14.57 11.12 14.57 10.64L14.57 10.64Q14.57 10.37 14.57 10.10Q14.57 9.83 14.56 9.55L14.56 9.55L14.56 9.12Q14.56 8.57 14.59 8.01Q14.62 7.45 14.66 6.94Q14.70 6.43 14.75 5.97Q14.79 5.52 14.83 5.17Q14.86 4.83 14.88 4.61Q14.90 4.39 14.90 4.33L14.90 4.33Q14.89 4.29 14.91 4.27Q14.92 4.25 14.95 4.24Q14.98 4.24 15.02 4.23Q15.05 4.23 15.08 4.22L15.08 4.22Q15.13 4.19 15.16 4.20Q15.19 4.21 15.21 4.23Q15.23 4.25 15.25 4.28Q15.26 4.30 15.30 4.30L15.30 4.30Q15.34 4.29 15.36 4.28Q15.39 4.26 15.40 4.24Q15.42 4.22 15.44 4.21Q15.46 4.20 15.48 4.20L15.48 4.20Q15.54 4.22 15.59 4.22Q15.64 4.22 15.64 4.20L15.64 4.20Q15.65 4.15 15.68 4.15Q15.71 4.16 15.75 4.19L15.75 4.19Q15.79 4.22 15.82 4.26Q15.85 4.30 15.85 4.38ZM21.57 11.40L21.57 11.40Q21.57 11.79 21.40 12.20Q21.23 12.60 20.92 12.93Q20.61 13.26 20.17 13.47Q19.72 13.69 19.17 13.69L19.17 13.69Q18.72 13.69 18.26 13.49Q17.79 13.30 17.42 12.94Q17.06 12.58 16.82 12.07Q16.59 11.56 16.59 10.92L16.59 10.92Q16.59 10.29 16.83 9.73Q17.08 9.17 17.47 8.75Q17.87 8.33 18.38 8.08Q18.89 7.83 19.43 7.83L19.43 7.83Q19.93 7.83 20.27 7.97Q20.62 8.10 20.83 8.28Q21.04 8.46 21.13 8.65Q21.23 8.85 21.23 8.96L21.23 8.96Q21.23 9.22 21.12 9.39Q21.01 9.55 20.87 9.63Q20.73 9.71 20.60 9.72Q20.47 9.73 20.44 9.68L20.44 9.68Q20.41 9.65 20.38 9.65Q20.35 9.65 20.32 9.67Q20.28 9.68 20.25 9.69Q20.22 9.71 20.20 9.69L20.20 9.69Q20.17 9.68 20.20 9.63Q20.23 9.58 20.23 9.55L20.23 9.55Q20.23 9.49 20.22 9.41Q20.22 9.33 20.25 9.24L20.25 9.24Q20.32 9.12 20.31 8.97Q20.30 8.83 20.20 8.70Q20.11 8.57 19.92 8.48Q19.72 8.39 19.41 8.39L19.41 8.39Q19.20 8.39 18.89 8.53Q18.59 8.67 18.32 8.98Q18.05 9.28 17.87 9.75Q17.68 10.22 17.68 10.87L17.68 10.87Q17.68 11.15 17.75 11.46Q17.82 11.76 18.01 12.02Q18.19 12.28 18.50 12.45Q18.82 12.62 19.30 12.62L19.30 12.62Q19.63 12.62 19.90 12.53Q20.17 12.44 20.38 12.30Q20.60 12.17 20.77 12.00Q20.95 11.84 21.06 11.69Q21.18 11.55 21.24 11.44Q21.31 11.33 21.32 11.30L21.32 11.30Q21.35 11.27 21.39 11.25Q21.43 11.23 21.47 11.24Q21.51 11.25 21.54 11.29Q21.57 11.33 21.57 11.40ZM26.63 13.46L26.63 13.46Q26.63 13.52 26.52 13.61Q26.42 13.70 26.26 13.70L26.26 13.70Q26.22 13.70 26.09 13.65Q25.96 13.60 25.83 13.51Q25.69 13.42 25.58 13.29Q25.47 13.15 25.46 12.98L25.46 12.98Q25.45 12.91 25.45 12.77Q25.45 12.64 25.45 12.46L25.45 12.46Q25.45 12.19 25.45 11.85Q25.45 11.52 25.46 11.18L25.46 11.18Q25.42 11.42 25.35 11.69Q25.28 11.95 25.18 12.21Q25.07 12.47 24.94 12.72Q24.80 12.97 24.62 13.21L24.62 13.21Q24.53 13.33 24.42 13.42Q24.32 13.50 24.21 13.56Q24.11 13.62 24.02 13.64Q23.93 13.67 23.88 13.67L23.88 13.67Q23.86 13.67 23.76 13.61Q23.66 13.56 23.53 13.46Q23.39 13.37 23.24 13.26Q23.09 13.15 22.96 13.03Q22.82 12.92 22.71 12.82Q22.60 12.72 22.55 12.66L22.55 12.66Q22.50 12.59 22.47 12.43Q22.43 12.26 22.40 12.02Q22.37 11.79 22.36 11.48Q22.34 11.18 22.34 10.84L22.34 10.84Q22.34 10.66 22.35 10.36Q22.35 10.07 22.37 9.73Q22.39 9.39 22.43 9.05Q22.46 8.70 22.50 8.43Q22.54 8.15 22.61 7.97Q22.67 7.80 22.75 7.80L22.75 7.80Q22.80 7.80 22.94 7.83Q23.08 7.86 23.22 7.86L23.22 7.86Q23.43 7.86 23.52 7.82Q23.60 7.79 23.65 7.79L23.65 7.79Q23.71 7.79 23.71 7.90L23.71 7.90Q23.71 7.94 23.71 7.97Q23.71 8.00 23.70 8.04L23.70 8.04Q23.69 8.08 23.67 8.25Q23.65 8.42 23.61 8.69Q23.58 8.96 23.54 9.29Q23.51 9.62 23.48 9.98Q23.45 10.34 23.43 10.71Q23.41 11.08 23.41 11.42L23.41 11.42Q23.41 11.64 23.42 11.87Q23.43 12.09 23.45 12.28Q23.48 12.46 23.53 12.57Q23.58 12.69 23.65 12.69L23.65 12.69Q23.71 12.69 23.82 12.63Q23.93 12.57 24.09 12.39Q24.24 12.22 24.42 11.89Q24.61 11.56 24.82 11.02Q25.04 10.47 25.28 9.68Q25.51 8.89 25.76 7.80L25.76 7.80Q25.76 7.78 25.78 7.77Q25.81 7.76 25.84 7.76L25.84 7.76Q25.93 7.76 26.07 7.78Q26.20 7.79 26.33 7.82Q26.46 7.85 26.55 7.90Q26.64 7.94 26.64 7.98L26.64 7.98Q26.64 8.29 26.61 8.65Q26.58 9.02 26.55 9.40Q26.52 9.79 26.49 10.19Q26.46 10.60 26.46 10.99L26.46 10.99Q26.46 11.70 26.51 12.35Q26.55 13.00 26.63 13.46ZM29.18 4.38L29.18 4.38Q29.18 4.47 29.16 4.75Q29.15 5.03 29.13 5.42Q29.11 5.82 29.08 6.29Q29.06 6.75 29.03 7.22Q29.00 7.69 28.98 8.13Q28.96 8.57 28.96 8.89L28.96 8.89Q28.94 9.09 28.94 9.33Q28.94 9.57 28.94 9.84L28.94 9.84Q28.94 10.21 28.94 10.60Q28.94 10.99 28.95 11.38Q28.96 11.76 28.97 12.11Q28.98 12.46 28.98 12.74Q28.99 13.02 28.99 13.21Q29.00 13.40 29.00 13.45L29.00 13.45Q29.00 13.54 28.97 13.59Q28.94 13.64 28.89 13.66Q28.85 13.68 28.80 13.67Q28.75 13.66 28.72 13.64L28.72 13.64Q28.68 13.62 28.65 13.59Q28.63 13.56 28.62 13.55Q28.60 13.54 28.59 13.54Q28.58 13.55 28.57 13.60L28.57 13.60Q28.55 13.77 28.50 13.86Q28.44 13.95 28.37 13.98Q28.31 14.01 28.25 14Q28.20 13.99 28.18 13.95L28.18 13.95Q28.17 13.92 28.14 13.91Q28.11 13.90 28.08 13.90Q28.04 13.90 28.01 13.88Q27.98 13.86 27.97 13.81L27.97 13.81Q27.92 13.58 27.90 13.22Q27.89 12.86 27.89 12.41L27.89 12.41Q27.89 12.02 27.90 11.57Q27.90 11.12 27.90 10.64L27.90 10.64Q27.90 10.37 27.90 10.10Q27.90 9.83 27.89 9.55L27.89 9.55L27.89 9.12Q27.89 8.57 27.92 8.01Q27.95 7.45 27.99 6.94Q28.03 6.43 28.08 5.97Q28.12 5.52 28.16 5.17Q28.19 4.83 28.21 4.61Q28.23 4.39 28.23 4.33L28.23 4.33Q28.22 4.29 28.24 4.27Q28.25 4.25 28.28 4.24Q28.31 4.24 28.35 4.23Q28.38 4.23 28.41 4.22L28.41 4.22Q28.46 4.19 28.49 4.20Q28.52 4.21 28.54 4.23Q28.56 4.25 28.58 4.28Q28.59 4.30 28.63 4.30L28.63 4.30Q28.67 4.29 28.69 4.28Q28.72 4.26 28.73 4.24Q28.75 4.22 28.77 4.21Q28.79 4.20 28.81 4.20L28.81 4.20Q28.87 4.22 28.92 4.22Q28.97 4.22 28.97 4.20L28.97 4.20Q28.98 4.15 29.01 4.15Q29.04 4.16 29.08 4.19L29.08 4.19Q29.12 4.22 29.15 4.26Q29.18 4.30 29.18 4.38ZM34.93 10.62L34.93 10.62Q34.93 11.33 34.72 11.91Q34.51 12.48 34.16 12.89Q33.80 13.29 33.33 13.51Q32.85 13.73 32.33 13.73L32.33 13.73Q32.11 13.73 31.85 13.68Q31.59 13.62 31.33 13.51Q31.07 13.39 30.82 13.20Q30.58 13.01 30.39 12.73Q30.19 12.45 30.08 12.07Q29.97 11.70 29.98 11.20L29.98 11.20Q29.98 10.64 30.11 10.18Q30.25 9.72 30.46 9.35Q30.68 8.99 30.95 8.72Q31.23 8.46 31.50 8.27Q31.77 8.09 32.03 8.00Q32.28 7.92 32.46 7.90L32.46 7.90Q32.56 7.90 32.55 7.92Q32.54 7.95 32.50 7.98Q32.46 8.02 32.43 8.05Q32.40 8.09 32.45 8.09L32.45 8.09Q32.50 8.11 32.53 8.12Q32.56 8.13 32.59 8.16L32.59 8.16L32.65 8.09Q32.70 8.06 32.74 8.06Q32.79 8.06 32.82 8.07Q32.85 8.08 32.87 8.08Q32.89 8.08 32.90 8.04L32.90 8.04Q32.92 7.96 32.95 7.95Q32.99 7.94 33.13 7.94L33.13 7.94Q33.21 7.94 33.38 7.99Q33.54 8.04 33.75 8.16Q33.95 8.27 34.16 8.47Q34.36 8.66 34.54 8.96Q34.71 9.26 34.82 9.67Q34.93 10.08 34.93 10.62ZM32.46 8.61L32.46 8.61Q32.22 8.76 31.99 9.00Q31.76 9.25 31.57 9.57Q31.38 9.89 31.27 10.29Q31.15 10.68 31.15 11.12L31.15 11.12Q31.15 11.59 31.24 11.98Q31.32 12.36 31.49 12.63Q31.65 12.90 31.89 13.05Q32.12 13.19 32.42 13.19L32.42 13.19Q32.69 13.19 32.95 13.04Q33.22 12.89 33.42 12.59Q33.63 12.29 33.75 11.85Q33.88 11.40 33.88 10.81L33.88 10.81Q33.88 10.22 33.72 9.82Q33.56 9.41 33.37 9.16Q33.17 8.91 33.00 8.81Q32.82 8.70 32.78 8.70L32.78 8.70Q32.68 8.70 32.63 8.70Q32.58 8.70 32.46 8.61ZM44.28 4.86L44.28 4.86Q44.28 5.00 44.24 5.29Q44.21 5.58 44.16 5.97Q44.11 6.36 44.05 6.85Q44.00 7.33 43.95 7.86Q43.90 8.39 43.87 8.94Q43.84 9.50 43.84 10.06L43.84 10.06Q43.84 10.34 43.85 10.71Q43.87 11.07 43.88 11.44Q43.90 11.81 43.92 12.17Q43.94 12.53 43.96 12.82Q43.97 13.10 43.97 13.29Q43.97 13.47 43.95 13.50L43.95 13.50Q43.91 13.54 43.86 13.54Q43.80 13.54 43.75 13.52Q43.70 13.51 43.64 13.51Q43.59 13.50 43.57 13.53L43.57 13.53Q43.56 13.56 43.52 13.60Q43.49 13.64 43.45 13.67Q43.40 13.70 43.34 13.71Q43.28 13.73 43.21 13.70L43.21 13.70Q43.09 13.63 42.99 13.50Q42.90 13.38 42.88 13.18L42.88 13.18Q42.85 13.04 42.84 12.86Q42.83 12.67 42.83 12.46Q42.82 12.24 42.82 12.01Q42.81 11.79 42.81 11.57L42.81 11.57Q42.65 12.02 42.42 12.38Q42.20 12.74 41.94 13.00Q41.67 13.25 41.38 13.42Q41.10 13.58 40.82 13.64L40.82 13.64Q40.45 13.71 40.05 13.63Q39.65 13.54 39.30 13.34Q38.96 13.14 38.71 12.84Q38.45 12.54 38.38 12.18L38.38 12.18Q38.32 11.93 38.30 11.69Q38.28 11.45 38.28 11.23L38.28 11.23Q38.28 10.65 38.42 10.18Q38.57 9.71 38.79 9.33Q39.02 8.96 39.29 8.69Q39.56 8.42 39.81 8.23Q40.07 8.05 40.26 7.95Q40.46 7.85 40.55 7.83L40.55 7.83Q40.71 7.79 40.88 7.77Q41.04 7.76 41.19 7.76L41.19 7.76Q41.49 7.76 41.75 7.82Q42.01 7.88 42.23 7.98Q42.44 8.07 42.61 8.19Q42.78 8.31 42.90 8.41L42.90 8.41Q42.92 8.00 42.94 7.59Q42.96 7.18 42.99 6.81Q43.01 6.44 43.04 6.13Q43.06 5.81 43.09 5.59L43.09 5.59Q43.15 5.22 43.20 4.96Q43.25 4.69 43.30 4.49Q43.35 4.30 43.40 4.16Q43.46 4.03 43.50 3.92L43.50 3.92Q43.53 3.90 43.60 3.89Q43.66 3.89 43.74 3.91Q43.83 3.92 43.91 3.96Q44.00 3.99 44.08 4.04L44.08 4.04Q44.15 4.09 44.19 4.14Q44.24 4.20 44.27 4.29Q44.30 4.38 44.30 4.51Q44.30 4.65 44.28 4.86ZM42.80 9.37L42.80 9.37Q42.80 9.28 42.81 9.18Q42.81 9.07 42.83 8.98L42.83 8.98Q42.77 9.02 42.73 9.06Q42.68 9.10 42.66 9.13L42.66 9.13Q42.51 9.30 42.46 9.32Q42.40 9.34 42.34 9.28L42.34 9.28Q41.88 8.81 41.45 8.64Q41.02 8.48 40.67 8.48L40.67 8.48Q40.44 8.48 40.27 8.53Q40.09 8.58 39.99 8.64L39.99 8.64Q39.81 8.75 39.66 8.97Q39.50 9.19 39.40 9.48Q39.29 9.77 39.23 10.10Q39.18 10.43 39.18 10.76L39.18 10.76Q39.18 11.11 39.25 11.43Q39.32 11.75 39.48 12.00Q39.63 12.24 39.89 12.38Q40.14 12.52 40.50 12.51L40.50 12.51Q40.90 12.49 41.22 12.32Q41.55 12.15 41.81 11.88Q42.06 11.61 42.25 11.28Q42.43 10.94 42.55 10.60Q42.68 10.26 42.74 9.94Q42.80 9.62 42.80 9.37ZM49.65 11.01L49.65 11.01Q49.65 11.08 49.66 11.18Q49.66 11.29 49.66 11.42L49.66 11.42Q49.66 11.58 49.62 11.82Q49.57 12.07 49.46 12.33Q49.36 12.60 49.18 12.87Q49 13.13 48.74 13.34Q48.48 13.56 48.13 13.69Q47.78 13.82 47.33 13.82L47.33 13.82Q46.92 13.82 46.50 13.67Q46.08 13.51 45.74 13.19Q45.39 12.87 45.17 12.36Q44.95 11.86 44.95 11.16L44.95 11.16Q44.95 10.73 45.06 10.30Q45.17 9.88 45.36 9.50Q45.55 9.13 45.80 8.81Q46.06 8.49 46.34 8.26Q46.63 8.03 46.93 7.90Q47.24 7.77 47.52 7.77L47.52 7.77Q48.02 7.77 48.35 7.93Q48.67 8.09 48.86 8.32Q49.05 8.55 49.13 8.81Q49.21 9.08 49.21 9.29L49.21 9.29Q49.21 9.50 49.11 9.76Q49.01 10.02 48.79 10.26Q48.56 10.49 48.20 10.65Q47.84 10.81 47.31 10.81L47.31 10.81Q47.03 10.81 46.81 10.74Q46.59 10.66 46.42 10.54Q46.25 10.42 46.13 10.28Q46.01 10.14 45.92 10.01L45.92 10.01Q45.80 10.44 45.80 11.01L45.80 11.01Q45.80 11.40 45.91 11.71Q46.03 12.02 46.22 12.24Q46.42 12.46 46.70 12.57Q46.97 12.69 47.30 12.69L47.30 12.69Q47.71 12.69 48.02 12.55Q48.32 12.41 48.55 12.20Q48.78 11.98 48.95 11.73Q49.12 11.48 49.24 11.28Q49.36 11.07 49.45 10.93Q49.55 10.79 49.64 10.80L49.64 10.80Q49.68 10.80 49.68 10.87L49.68 10.87Q49.68 10.90 49.67 10.94Q49.66 10.97 49.65 11.01ZM47.59 8.46L47.59 8.46Q47.47 8.46 47.27 8.51Q47.08 8.57 46.86 8.70Q46.65 8.83 46.44 9.05Q46.22 9.27 46.07 9.61L46.07 9.61Q46.16 9.56 46.23 9.53Q46.31 9.50 46.33 9.50L46.33 9.50Q46.35 9.50 46.38 9.52L46.38 9.52Q46.53 9.79 46.77 9.90Q47.00 10.01 47.30 10.01L47.30 10.01Q47.53 10.01 47.70 9.94Q47.87 9.86 47.97 9.73Q48.08 9.61 48.13 9.46Q48.18 9.32 48.18 9.17L48.18 9.17Q48.18 8.87 48.02 8.66Q47.87 8.46 47.59 8.46ZM57.40 8.13L57.40 8.13Q57.42 8.17 57.43 8.21Q57.43 8.25 57.43 8.31L57.43 8.31Q57.43 8.52 57.20 8.76Q56.97 9.00 56.48 9.20L56.48 9.20Q56.38 9.24 56.29 9.24L56.29 9.24Q56.19 9.24 56.12 9.18Q56.05 9.13 56.05 9.06L56.05 9.06Q56.05 9.02 56.10 8.97Q56.15 8.91 56.21 8.86Q56.27 8.80 56.32 8.76Q56.37 8.71 56.37 8.68L56.37 8.68Q56.37 8.63 56.28 8.63L56.28 8.63Q56.14 8.63 55.93 8.71Q55.72 8.78 55.48 8.91Q55.25 9.04 55.01 9.18Q54.76 9.33 54.57 9.47Q54.38 9.61 54.26 9.72Q54.14 9.83 54.14 9.88L54.14 9.88Q54.14 9.91 54.20 9.91L54.20 9.91L54.39 9.91Q54.58 9.91 54.87 9.93Q55.16 9.95 55.48 10.00Q55.80 10.06 56.13 10.17Q56.45 10.27 56.71 10.45Q56.96 10.63 57.13 10.88Q57.29 11.14 57.29 11.48L57.29 11.48Q57.29 11.66 57.23 11.86Q57.18 12.07 57.03 12.27Q56.88 12.48 56.63 12.70Q56.38 12.91 55.99 13.13L55.99 13.13Q55.40 13.44 54.89 13.59Q54.38 13.74 53.97 13.74L53.97 13.74Q53.44 13.74 53.13 13.50Q52.82 13.26 52.82 12.82L52.82 12.82Q52.82 12.49 52.95 12.26Q53.07 12.02 53.25 11.87Q53.42 11.72 53.59 11.65Q53.76 11.57 53.85 11.57L53.85 11.57Q53.89 11.57 53.92 11.56Q53.95 11.55 53.98 11.55L53.98 11.55Q54.04 11.55 54.04 11.63L54.04 11.63L54.04 11.70Q54.04 11.74 54.07 11.77Q54.09 11.80 54.09 11.83L54.09 11.83Q54.09 11.87 53.99 11.96Q53.89 12.04 53.77 12.15Q53.66 12.26 53.56 12.38Q53.46 12.50 53.46 12.62L53.46 12.62Q53.46 12.76 53.68 12.76L53.68 12.76Q53.95 12.76 54.25 12.65Q54.56 12.54 54.85 12.38Q55.14 12.22 55.40 12.01Q55.67 11.80 55.86 11.60Q56.06 11.40 56.18 11.23Q56.29 11.05 56.29 10.95L56.29 10.95Q56.29 10.83 56.15 10.75Q56.01 10.68 55.77 10.63Q55.53 10.58 55.21 10.56Q54.89 10.55 54.53 10.55L54.53 10.55Q54.16 10.55 53.92 10.58Q53.68 10.62 53.62 10.62L53.62 10.62Q53.58 10.62 53.49 10.61Q53.40 10.60 53.30 10.54Q53.21 10.49 53.14 10.39Q53.07 10.29 53.07 10.10L53.07 10.10Q53.07 9.97 53.13 9.80Q53.19 9.64 53.34 9.45Q53.48 9.26 53.74 9.04Q54.00 8.83 54.39 8.59L54.39 8.59Q54.81 8.33 55.18 8.17Q55.54 8.01 55.84 7.92Q56.14 7.83 56.36 7.80Q56.59 7.77 56.72 7.77L56.72 7.77Q57.03 7.77 57.18 7.85Q57.33 7.93 57.40 8.13ZM62.53 13.46L62.53 13.46Q62.53 13.52 62.43 13.61Q62.32 13.70 62.17 13.70L62.17 13.70Q62.12 13.70 61.99 13.65Q61.87 13.60 61.73 13.51Q61.59 13.42 61.48 13.29Q61.37 13.15 61.37 12.98L61.37 12.98Q61.35 12.91 61.35 12.77Q61.35 12.64 61.35 12.46L61.35 12.46Q61.35 12.19 61.35 11.85Q61.35 11.52 61.37 11.18L61.37 11.18Q61.32 11.42 61.25 11.69Q61.18 11.95 61.08 12.21Q60.98 12.47 60.84 12.72Q60.70 12.97 60.53 13.21L60.53 13.21Q60.43 13.33 60.32 13.42Q60.22 13.50 60.12 13.56Q60.01 13.62 59.92 13.64Q59.83 13.67 59.79 13.67L59.79 13.67Q59.76 13.67 59.66 13.61Q59.56 13.56 59.43 13.46Q59.29 13.37 59.14 13.26Q58.99 13.15 58.86 13.03Q58.72 12.92 58.61 12.82Q58.50 12.72 58.45 12.66L58.45 12.66Q58.41 12.59 58.37 12.43Q58.33 12.26 58.30 12.02Q58.28 11.79 58.26 11.48Q58.24 11.18 58.24 10.84L58.24 10.84Q58.24 10.66 58.25 10.36Q58.26 10.07 58.28 9.73Q58.30 9.39 58.33 9.05Q58.36 8.70 58.40 8.43Q58.45 8.15 58.51 7.97Q58.57 7.80 58.65 7.80L58.65 7.80Q58.71 7.80 58.84 7.83Q58.98 7.86 59.12 7.86L59.12 7.86Q59.34 7.86 59.42 7.82Q59.51 7.79 59.55 7.79L59.55 7.79Q59.62 7.79 59.62 7.90L59.62 7.90Q59.62 7.94 59.62 7.97Q59.62 8.00 59.60 8.04L59.60 8.04Q59.60 8.08 59.57 8.25Q59.55 8.42 59.51 8.69Q59.48 8.96 59.45 9.29Q59.41 9.62 59.38 9.98Q59.35 10.34 59.33 10.71Q59.31 11.08 59.31 11.42L59.31 11.42Q59.31 11.64 59.32 11.87Q59.33 12.09 59.36 12.28Q59.38 12.46 59.43 12.57Q59.48 12.69 59.55 12.69L59.55 12.69Q59.61 12.69 59.72 12.63Q59.83 12.57 59.99 12.39Q60.14 12.22 60.33 11.89Q60.51 11.56 60.73 11.02Q60.94 10.47 61.18 9.68Q61.41 8.89 61.66 7.80L61.66 7.80Q61.66 7.78 61.68 7.77Q61.71 7.76 61.74 7.76L61.74 7.76Q61.83 7.76 61.97 7.78Q62.10 7.79 62.23 7.82Q62.36 7.85 62.45 7.90Q62.54 7.94 62.54 7.98L62.54 7.98Q62.54 8.29 62.51 8.65Q62.49 9.02 62.45 9.40Q62.42 9.79 62.39 10.19Q62.36 10.60 62.36 10.99L62.36 10.99Q62.36 11.70 62.41 12.35Q62.45 13.00 62.53 13.46ZM65.13 4.23L65.13 4.23Q65.13 4.28 65.11 4.54Q65.09 4.80 65.07 5.19Q65.04 5.58 65.01 6.07Q64.98 6.55 64.95 7.03Q64.92 7.52 64.90 7.97Q64.87 8.42 64.86 8.74L64.86 8.74Q64.95 8.59 65.09 8.44Q65.24 8.29 65.44 8.17Q65.64 8.05 65.90 7.98Q66.17 7.90 66.49 7.90L66.49 7.90Q66.91 7.90 67.32 8.05Q67.74 8.20 68.07 8.51Q68.39 8.83 68.60 9.31Q68.80 9.79 68.80 10.45L68.80 10.45Q68.80 11.01 68.66 11.46Q68.51 11.91 68.27 12.26Q68.04 12.61 67.74 12.87Q67.44 13.13 67.13 13.30Q66.82 13.47 66.53 13.56Q66.25 13.64 66.04 13.64L66.04 13.64Q65.82 13.64 65.63 13.60Q65.44 13.56 65.30 13.49Q65.16 13.43 65.08 13.36Q65.00 13.28 65.00 13.21L65.00 13.21Q64.98 13.05 64.99 12.87Q65.00 12.69 65.12 12.58L65.12 12.58Q65.23 12.47 65.31 12.45Q65.39 12.43 65.46 12.52L65.46 12.52Q65.54 12.62 65.55 12.74Q65.57 12.85 65.53 12.91L65.53 12.91Q65.51 12.95 65.53 12.97Q65.56 13.00 65.61 13.01Q65.66 13.03 65.72 13.04Q65.79 13.05 65.85 13.05L65.85 13.05Q66.08 13.05 66.38 12.86Q66.68 12.67 66.94 12.34Q67.20 12.00 67.38 11.55Q67.55 11.10 67.55 10.58L67.55 10.58Q67.54 10.16 67.44 9.85Q67.35 9.54 67.20 9.32Q67.06 9.11 66.88 8.97Q66.70 8.83 66.52 8.76Q66.35 8.69 66.20 8.67Q66.04 8.65 65.95 8.65L65.95 8.65Q65.54 8.70 65.26 8.93Q64.97 9.16 64.84 9.51L64.84 9.51Q64.82 10.23 64.79 10.97Q64.76 11.70 64.76 12.34L64.76 12.34Q64.76 12.65 64.77 12.94Q64.78 13.23 64.81 13.45L64.81 13.45Q64.82 13.51 64.81 13.54Q64.80 13.57 64.77 13.57Q64.74 13.57 64.71 13.56Q64.67 13.54 64.65 13.53L64.65 13.53Q64.62 13.51 64.63 13.56Q64.65 13.61 64.65 13.66Q64.65 13.71 64.63 13.74Q64.61 13.76 64.50 13.70L64.50 13.70Q64.45 13.65 64.37 13.63Q64.29 13.60 64.31 13.66L64.31 13.66Q64.32 13.68 64.27 13.68Q64.22 13.69 64.16 13.67Q64.09 13.64 64.04 13.59Q63.98 13.54 63.96 13.43L63.96 13.43Q63.92 13.22 63.89 12.98Q63.86 12.74 63.84 12.44Q63.82 12.15 63.81 11.80Q63.79 11.45 63.79 11.01L63.79 11.01Q63.79 10.67 63.80 10.28Q63.80 9.88 63.82 9.41L63.82 9.41Q63.85 8.56 63.89 7.72Q63.93 6.89 63.98 6.20Q64.03 5.50 64.08 5.00Q64.14 4.50 64.21 4.32L64.21 4.32Q64.22 4.25 64.27 4.24Q64.31 4.22 64.44 4.19L64.44 4.19Q64.55 4.16 64.68 4.12Q64.80 4.09 64.87 4.11L64.87 4.11Q64.90 4.12 64.95 4.11Q65.00 4.09 65.04 4.09Q65.08 4.09 65.12 4.12Q65.15 4.15 65.13 4.23ZM73.10 8.59L73.10 8.59Q73.10 8.78 73.07 8.98Q73.04 9.17 72.98 9.35Q72.93 9.52 72.85 9.66Q72.77 9.80 72.67 9.88L72.67 9.88Q72.59 9.95 72.54 9.95Q72.50 9.95 72.46 9.92Q72.43 9.89 72.41 9.86Q72.39 9.82 72.36 9.82L72.36 9.82Q72.33 9.81 72.29 9.82Q72.24 9.83 72.20 9.82Q72.15 9.82 72.12 9.77Q72.08 9.73 72.06 9.61L72.06 9.61Q72.05 9.48 72.07 9.27Q72.10 9.06 72.10 8.87L72.10 8.87Q72.10 8.69 72.06 8.57Q72.02 8.45 71.93 8.45L71.93 8.45Q71.88 8.45 71.76 8.52Q71.64 8.59 71.50 8.83Q71.35 9.06 71.21 9.50Q71.07 9.94 70.98 10.67L70.98 10.67Q70.98 11.61 70.99 12.19Q71.00 12.76 71.00 13.08L71.00 13.08Q71.00 13.36 70.99 13.47Q70.98 13.59 70.92 13.62L70.92 13.62Q70.89 13.64 70.79 13.68Q70.69 13.71 70.58 13.73Q70.46 13.76 70.36 13.78Q70.26 13.80 70.23 13.79L70.23 13.79Q70.21 13.79 70.16 13.75Q70.10 13.71 70.04 13.66Q69.99 13.60 69.94 13.55Q69.89 13.49 69.88 13.45L69.88 13.45Q69.87 13.38 69.87 13.14Q69.88 12.89 69.88 12.55Q69.88 12.21 69.89 11.80Q69.90 11.40 69.90 10.99L69.90 10.99Q69.90 10.73 69.91 10.41Q69.93 10.10 69.96 9.77Q69.98 9.44 70.01 9.13Q70.03 8.81 70.06 8.56Q70.08 8.31 70.10 8.15Q70.12 7.98 70.12 7.94L70.12 7.94Q70.13 7.89 70.17 7.90Q70.22 7.92 70.27 7.95Q70.32 7.98 70.36 8.01Q70.40 8.04 70.42 8.01L70.42 8.01Q70.43 7.95 70.52 7.99Q70.61 8.04 70.68 8.09L70.68 8.09Q70.71 8.13 70.75 8.15Q70.79 8.18 70.82 8.21Q70.85 8.25 70.88 8.31Q70.90 8.37 70.90 8.48L70.90 8.48Q70.90 8.57 70.92 8.76Q70.93 8.96 70.95 9.21L70.95 9.21Q71.03 8.97 71.13 8.70Q71.24 8.42 71.39 8.19Q71.54 7.96 71.74 7.81Q71.95 7.66 72.24 7.66L72.24 7.66Q72.39 7.66 72.55 7.72Q72.71 7.79 72.83 7.91Q72.96 8.03 73.04 8.20Q73.11 8.37 73.10 8.59ZM78.06 11.01L78.06 11.01Q78.06 11.08 78.07 11.18Q78.07 11.29 78.07 11.42L78.07 11.42Q78.07 11.58 78.03 11.82Q77.98 12.07 77.87 12.33Q77.77 12.60 77.59 12.87Q77.41 13.13 77.15 13.34Q76.89 13.56 76.54 13.69Q76.19 13.82 75.74 13.82L75.74 13.82Q75.33 13.82 74.91 13.67Q74.49 13.51 74.15 13.19Q73.80 12.87 73.58 12.36Q73.36 11.86 73.36 11.16L73.36 11.16Q73.36 10.73 73.47 10.30Q73.58 9.88 73.77 9.50Q73.96 9.13 74.21 8.81Q74.47 8.49 74.75 8.26Q75.04 8.03 75.34 7.90Q75.65 7.77 75.93 7.77L75.93 7.77Q76.43 7.77 76.76 7.93Q77.08 8.09 77.27 8.32Q77.46 8.55 77.54 8.81Q77.62 9.08 77.62 9.29L77.62 9.29Q77.62 9.50 77.52 9.76Q77.42 10.02 77.20 10.26Q76.97 10.49 76.61 10.65Q76.25 10.81 75.72 10.81L75.72 10.81Q75.44 10.81 75.22 10.74Q75.00 10.66 74.83 10.54Q74.66 10.42 74.54 10.28Q74.42 10.14 74.33 10.01L74.33 10.01Q74.21 10.44 74.21 11.01L74.21 11.01Q74.21 11.40 74.32 11.71Q74.44 12.02 74.63 12.24Q74.83 12.46 75.11 12.57Q75.38 12.69 75.71 12.69L75.71 12.69Q76.12 12.69 76.43 12.55Q76.73 12.41 76.96 12.20Q77.19 11.98 77.36 11.73Q77.53 11.48 77.65 11.28Q77.77 11.07 77.86 10.93Q77.96 10.79 78.05 10.80L78.05 10.80Q78.09 10.80 78.09 10.87L78.09 10.87Q78.09 10.90 78.08 10.94Q78.07 10.97 78.06 11.01ZM76.00 8.46L76.00 8.46Q75.88 8.46 75.68 8.51Q75.49 8.57 75.27 8.70Q75.06 8.83 74.85 9.05Q74.63 9.27 74.48 9.61L74.48 9.61Q74.57 9.56 74.65 9.53Q74.72 9.50 74.74 9.50L74.74 9.50Q74.76 9.50 74.79 9.52L74.79 9.52Q74.94 9.79 75.18 9.90Q75.41 10.01 75.71 10.01L75.71 10.01Q75.94 10.01 76.11 9.94Q76.28 9.86 76.38 9.73Q76.49 9.61 76.54 9.46Q76.59 9.32 76.59 9.17L76.59 9.17Q76.59 8.87 76.43 8.66Q76.28 8.46 76.00 8.46ZM84.76 4.86L84.76 4.86Q84.75 5.00 84.72 5.29Q84.68 5.58 84.63 5.97Q84.58 6.36 84.53 6.85Q84.47 7.33 84.42 7.86Q84.38 8.39 84.35 8.94Q84.31 9.50 84.31 10.06L84.31 10.06Q84.31 10.34 84.33 10.71Q84.34 11.07 84.36 11.44Q84.38 11.81 84.40 12.17Q84.42 12.53 84.43 12.82Q84.44 13.10 84.44 13.29Q84.44 13.47 84.42 13.50L84.42 13.50Q84.39 13.54 84.33 13.54Q84.28 13.54 84.23 13.52Q84.17 13.51 84.12 13.51Q84.07 13.50 84.05 13.53L84.05 13.53Q84.03 13.56 84 13.60Q83.97 13.64 83.92 13.67Q83.88 13.70 83.82 13.71Q83.75 13.73 83.69 13.70L83.69 13.70Q83.57 13.63 83.47 13.50Q83.37 13.38 83.35 13.18L83.35 13.18Q83.33 13.04 83.32 12.86Q83.31 12.67 83.30 12.46Q83.30 12.24 83.29 12.01Q83.29 11.79 83.29 11.57L83.29 11.57Q83.13 12.02 82.90 12.38Q82.67 12.74 82.41 13.00Q82.15 13.25 81.86 13.42Q81.57 13.58 81.29 13.64L81.29 13.64Q80.92 13.71 80.52 13.63Q80.12 13.54 79.78 13.34Q79.43 13.14 79.18 12.84Q78.93 12.54 78.85 12.18L78.85 12.18Q78.80 11.93 78.78 11.69Q78.76 11.45 78.76 11.23L78.76 11.23Q78.76 10.65 78.90 10.18Q79.04 9.71 79.27 9.33Q79.50 8.96 79.77 8.69Q80.04 8.42 80.29 8.23Q80.54 8.05 80.74 7.95Q80.94 7.85 81.03 7.83L81.03 7.83Q81.19 7.79 81.35 7.77Q81.52 7.76 81.67 7.76L81.67 7.76Q81.97 7.76 82.23 7.82Q82.49 7.88 82.70 7.98Q82.92 8.07 83.09 8.19Q83.25 8.31 83.38 8.41L83.38 8.41Q83.40 8.00 83.42 7.59Q83.44 7.18 83.46 6.81Q83.49 6.44 83.51 6.13Q83.54 5.81 83.57 5.59L83.57 5.59Q83.62 5.22 83.68 4.96Q83.73 4.69 83.78 4.49Q83.83 4.30 83.88 4.16Q83.93 4.03 83.98 3.92L83.98 3.92Q84.01 3.90 84.07 3.89Q84.14 3.89 84.22 3.91Q84.30 3.92 84.39 3.96Q84.48 3.99 84.55 4.04L84.55 4.04Q84.62 4.09 84.67 4.14Q84.72 4.20 84.75 4.29Q84.77 4.38 84.78 4.51Q84.78 4.65 84.76 4.86ZM83.28 9.37L83.28 9.37Q83.28 9.28 83.28 9.18Q83.29 9.07 83.30 8.98L83.30 8.98Q83.25 9.02 83.20 9.06Q83.16 9.10 83.14 9.13L83.14 9.13Q82.99 9.30 82.93 9.32Q82.88 9.34 82.82 9.28L82.82 9.28Q82.35 8.81 81.93 8.64Q81.50 8.48 81.15 8.48L81.15 8.48Q80.92 8.48 80.74 8.53Q80.57 8.58 80.47 8.64L80.47 8.64Q80.28 8.75 80.13 8.97Q79.98 9.19 79.87 9.48Q79.77 9.77 79.71 10.10Q79.65 10.43 79.65 10.76L79.65 10.76Q79.65 11.11 79.72 11.43Q79.80 11.75 79.95 12.00Q80.11 12.24 80.36 12.38Q80.62 12.52 80.98 12.51L80.98 12.51Q81.38 12.49 81.70 12.32Q82.02 12.15 82.28 11.88Q82.54 11.61 82.72 11.28Q82.91 10.94 83.03 10.60Q83.15 10.26 83.21 9.94Q83.28 9.62 83.28 9.37ZM90.13 11.01L90.13 11.01Q90.13 11.08 90.13 11.18Q90.14 11.29 90.14 11.42L90.14 11.42Q90.14 11.58 90.09 11.82Q90.04 12.07 89.94 12.33Q89.83 12.60 89.65 12.87Q89.48 13.13 89.22 13.34Q88.96 13.56 88.60 13.69Q88.25 13.82 87.80 13.82L87.80 13.82Q87.40 13.82 86.98 13.67Q86.56 13.51 86.21 13.19Q85.87 12.87 85.64 12.36Q85.42 11.86 85.42 11.16L85.42 11.16Q85.42 10.73 85.53 10.30Q85.65 9.88 85.84 9.50Q86.02 9.13 86.28 8.81Q86.54 8.49 86.82 8.26Q87.10 8.03 87.41 7.90Q87.71 7.77 88.00 7.77L88.00 7.77Q88.50 7.77 88.82 7.93Q89.15 8.09 89.34 8.32Q89.53 8.55 89.61 8.81Q89.69 9.08 89.69 9.29L89.69 9.29Q89.69 9.50 89.59 9.76Q89.49 10.02 89.26 10.26Q89.04 10.49 88.68 10.65Q88.31 10.81 87.79 10.81L87.79 10.81Q87.51 10.81 87.28 10.74Q87.06 10.66 86.89 10.54Q86.72 10.42 86.60 10.28Q86.48 10.14 86.40 10.01L86.40 10.01Q86.28 10.44 86.28 11.01L86.28 11.01Q86.28 11.40 86.39 11.71Q86.50 12.02 86.70 12.24Q86.90 12.46 87.17 12.57Q87.45 12.69 87.77 12.69L87.77 12.69Q88.18 12.69 88.49 12.55Q88.80 12.41 89.03 12.20Q89.26 11.98 89.42 11.73Q89.59 11.48 89.71 11.28Q89.84 11.07 89.93 10.93Q90.02 10.79 90.11 10.80L90.11 10.80Q90.15 10.80 90.15 10.87L90.15 10.87Q90.15 10.90 90.15 10.94Q90.14 10.97 90.13 11.01ZM88.07 8.46L88.07 8.46Q87.94 8.46 87.75 8.51Q87.55 8.57 87.34 8.70Q87.12 8.83 86.91 9.05Q86.70 9.27 86.54 9.61L86.54 9.61Q86.64 9.56 86.71 9.53Q86.78 9.50 86.81 9.50L86.81 9.50Q86.82 9.50 86.85 9.52L86.85 9.52Q87.01 9.79 87.24 9.90Q87.48 10.01 87.77 10.01L87.77 10.01Q88.01 10.01 88.17 9.94Q88.34 9.86 88.45 9.73Q88.56 9.61 88.61 9.46Q88.66 9.32 88.66 9.17L88.66 9.17Q88.66 8.87 88.50 8.66Q88.34 8.46 88.07 8.46ZM95.29 8.13L95.29 8.13Q95.31 8.17 95.31 8.21Q95.31 8.25 95.31 8.31L95.31 8.31Q95.31 8.52 95.08 8.76Q94.86 9.00 94.36 9.20L94.36 9.20Q94.26 9.24 94.18 9.24L94.18 9.24Q94.08 9.24 94.00 9.18Q93.93 9.13 93.93 9.06L93.93 9.06Q93.93 9.02 93.98 8.97Q94.04 8.91 94.09 8.86Q94.15 8.80 94.20 8.76Q94.25 8.71 94.25 8.68L94.25 8.68Q94.25 8.63 94.17 8.63L94.17 8.63Q94.03 8.63 93.82 8.71Q93.60 8.78 93.37 8.91Q93.13 9.04 92.89 9.18Q92.65 9.33 92.46 9.47Q92.26 9.61 92.15 9.72Q92.03 9.83 92.03 9.88L92.03 9.88Q92.03 9.91 92.08 9.91L92.08 9.91L92.28 9.91Q92.46 9.91 92.75 9.93Q93.04 9.95 93.37 10.00Q93.69 10.06 94.01 10.17Q94.34 10.27 94.59 10.45Q94.85 10.63 95.01 10.88Q95.18 11.14 95.18 11.48L95.18 11.48Q95.18 11.66 95.12 11.86Q95.06 12.07 94.91 12.27Q94.77 12.48 94.51 12.70Q94.26 12.91 93.87 13.13L93.87 13.13Q93.28 13.44 92.77 13.59Q92.26 13.74 91.85 13.74L91.85 13.74Q91.32 13.74 91.01 13.50Q90.71 13.26 90.71 12.82L90.71 12.82Q90.71 12.49 90.83 12.26Q90.96 12.02 91.13 11.87Q91.30 11.72 91.47 11.65Q91.64 11.57 91.73 11.57L91.73 11.57Q91.77 11.57 91.80 11.56Q91.83 11.55 91.87 11.55L91.87 11.55Q91.93 11.55 91.93 11.63L91.93 11.63L91.93 11.70Q91.93 11.74 91.95 11.77Q91.97 11.80 91.97 11.83L91.97 11.83Q91.97 11.87 91.87 11.96Q91.77 12.04 91.66 12.15Q91.54 12.26 91.44 12.38Q91.34 12.50 91.34 12.62L91.34 12.62Q91.34 12.76 91.56 12.76L91.56 12.76Q91.83 12.76 92.14 12.65Q92.44 12.54 92.73 12.38Q93.02 12.22 93.29 12.01Q93.55 11.80 93.75 11.60Q93.95 11.40 94.06 11.23Q94.18 11.05 94.18 10.95L94.18 10.95Q94.18 10.83 94.04 10.75Q93.90 10.68 93.66 10.63Q93.41 10.58 93.09 10.56Q92.77 10.55 92.42 10.55L92.42 10.55Q92.05 10.55 91.80 10.58Q91.56 10.62 91.51 10.62L91.51 10.62Q91.46 10.62 91.37 10.61Q91.28 10.60 91.19 10.54Q91.10 10.49 91.03 10.39Q90.96 10.29 90.96 10.10L90.96 10.10Q90.96 9.97 91.02 9.80Q91.08 9.64 91.22 9.45Q91.37 9.26 91.63 9.04Q91.88 8.83 92.28 8.59L92.28 8.59Q92.70 8.33 93.06 8.17Q93.43 8.01 93.72 7.92Q94.02 7.83 94.25 7.80Q94.47 7.77 94.60 7.77L94.60 7.77Q94.91 7.77 95.06 7.85Q95.21 7.93 95.29 8.13Z"></path></g><defs data-v-fde0c5aa=""><linearGradient data-v-fde0c5aa="" gradientTransform="rotate(25)" id="1b426ed5-bc0a-41e4-90a7-2f063f466def" x1="0%" y1="0%" x2="100%" y2="0%"><stop data-v-fde0c5aa="" offset="0%" stop-color="#8D2CE3" stop-opacity="1"></stop><stop data-v-fde0c5aa="" offset="100%" stop-color="#F7C6F6" stop-opacity="1"></stop></linearGradient></defs><g data-v-fde0c5aa="" id="a9f615c1-7860-428c-8a28-08964ea44146" stroke="none" fill="url(#1b426ed5-bc0a-41e4-90a7-2f063f466def)" transform="matrix(0.6635016766961943,0,0,0.6635016766961943,116.83543144578353,93.92485925915723)"><path d="M50 77.1c3.6 0 7.1-.7 10.4-2.1 13.8-5.7 20.4-21.6 14.7-35.5C70.9 29.4 61 22.9 50 22.9c-3.6 0-7.1.7-10.4 2.1-13.8 5.7-20.4 21.6-14.7 35.5C29.1 70.6 39 77.1 50 77.1zM30.3 61.7h5.5c1.1 3.3 2.6 6.5 4.4 9.1-4-2-7.5-5.1-9.9-9.1zm41.4-19.1c1.7 5 1.6 10.2 0 14.9h-6c.5-2.5.8-5.1.8-7.5 0-2.5-.2-5-.7-7.4h5.9zM62.2 50c0 2.4-.3 5-1 7.5h-9V42.6h9.2c.6 2.3.8 4.8.8 7.4zM48 72.2c-3.1-1.4-5.9-5.6-7.7-10.5H48v10.5zm4.3 0V61.7H60c-1.9 5-4.7 9.2-7.7 10.5zm0-33.9V27.6c3.2 1.3 6.2 5.4 8 10.7h-8zM48 27.6v10.7h-8c1.8-5.3 4.8-9.4 8-10.7zm0 15v14.9h-9c-.6-2.5-1-5.1-1-7.5 0-2.5.3-5 .8-7.4H48zM34.7 57.4h-6.3c-1.7-5-1.6-10.2 0-14.9h6.1c-.5 2.5-.7 5-.7 7.5 0 2.3.3 4.8.9 7.4zm25.5 13.1c.6-.9 1.3-1.9 1.8-3 .9-1.8 1.8-3.7 2.4-5.8h5.2c-2.1 3.7-5.3 6.8-9.4 8.8zm9.5-32.2h-4.9c-.7-2.3-1.6-4.6-2.7-6.5-.4-.7-.8-1.3-1.2-1.9 3.6 1.9 6.6 4.8 8.8 8.4zm-30.2-8.7c-.5.7-.9 1.4-1.3 2.1-1.1 2-2 4.2-2.7 6.5h-5.2c2.2-3.5 5.3-6.5 9.2-8.6zm10-21.5c10.8-.1 21.1 3.9 29 11.2v-3.2c0-1.2.9-2.1 2.1-2.1 1.2 0 2.1.9 2.1 2.1l.1 8.3c0 1.2-.9 2.1-2.1 2.1l-8.3.1c-1.2 0-2.1-.9-2.1-2.1 0-1.2.9-2.1 2.1-2.1h3.2c-7.1-6.5-16.2-10.1-25.9-10-10.1.1-19.5 4.1-26.5 11.3-10.3 10.4-13.6 25.4-8.7 39.1.4 1.1-.2 2.3-1.3 2.7-.2.1-.5.1-.7.1-.9 0-1.7-.5-2-1.4C7.9 56.9 7.4 49 9 41.4c1.6-7.8 5.5-15 11.1-20.7 7.7-8 18.2-12.5 29.4-12.6zm27.4 68.2c10.2-10.4 13.4-25.4 8.5-39.1-.4-1.1.2-2.3 1.3-2.7 1.1-.4 2.3.2 2.7 1.3C92 43.1 92.6 51 91 58.6c-1.6 7.8-5.5 15-11.1 20.7-7.8 8-18.3 12.5-29.5 12.6h-.5c-10.7 0-20.7-4-28.5-11.2v3.2c0 1.2-.9 2.1-2.1 2.1-1.2 0-2.1-.9-2.1-2.1l-.1-8.3c0-.6.2-1.1.6-1.5.4-.4.9-.6 1.5-.6l8.3-.1c1.2 0 2.1.9 2.1 2.1 0 1.2-.9 2.1-2.1 2.1h-3.2c15.1 13.8 38.4 13.3 52.6-1.3z"></path></g><!----></svg>